<svg width="250" height="250" viewBox="0 0 250 250" fill="none" xmlns="http://www.w3.org/2000/svg">
<path d="M233.23 65.3136C222.053 46.1618 206.891 30.9993 187.741 19.8227C168.588 8.64547 147.678 3.05829 124.998 3.05829C102.32 3.05829 81.4042 8.64718 62.2553 19.8227C43.1035 30.9988 27.9421 46.1618 16.7644 65.3136C5.58832 84.4649 0 105.378 0 128.053C0 155.291 7.94666 179.783 23.844 201.537C39.7396 223.293 60.2743 238.348 85.4466 246.702C88.3767 247.246 90.5458 246.863 91.9561 245.564C93.367 244.263 94.0716 242.634 94.0716 240.683C94.0716 240.358 94.0437 237.429 93.9895 231.894C93.9336 226.36 93.9074 221.531 93.9074 217.411L90.1638 218.059C87.777 218.496 84.7659 218.682 81.1306 218.629C77.497 218.578 73.7249 218.198 69.8195 217.49C65.9122 216.788 62.2781 215.16 58.9142 212.61C55.5519 210.06 53.1651 206.723 51.7542 202.602L50.1267 198.857C49.0418 196.364 47.3339 193.594 45.0007 190.557C42.6674 187.518 40.3079 185.458 37.9211 184.373L36.7815 183.558C36.0222 183.016 35.3176 182.362 34.666 181.603C34.015 180.844 33.5276 180.085 33.2021 179.324C32.876 178.563 33.1462 177.939 34.0156 177.449C34.8849 176.96 36.456 176.722 38.7357 176.722L41.9896 177.208C44.1598 177.643 46.8443 178.942 50.0463 181.114C53.2466 183.283 55.8775 186.104 57.9394 189.575C60.4362 194.025 63.4445 197.415 66.9726 199.749C70.4978 202.082 74.0522 203.246 77.6321 203.246C81.2121 203.246 84.3041 202.975 86.9093 202.435C89.5117 201.893 91.9532 201.077 94.2329 199.993C95.2094 192.72 97.8682 187.133 102.207 183.227C96.0229 182.577 90.4631 181.598 85.5247 180.297C80.5891 178.994 75.4887 176.879 70.2271 173.946C64.9625 171.018 60.5953 167.382 57.1242 163.043C53.6525 158.703 50.8033 153.005 48.5807 145.954C46.3569 138.9 45.2447 130.762 45.2447 121.54C45.2447 108.409 49.5315 97.2343 58.1035 88.0107C54.088 78.1383 54.4671 67.0712 59.242 54.8103C62.3887 53.8326 67.0552 54.5663 73.2393 57.0067C79.4244 59.4483 83.953 61.5398 86.8295 63.274C89.7061 65.0075 92.0108 66.4766 93.7472 67.668C103.84 64.8479 114.256 63.4376 124.997 63.4376C135.738 63.4376 146.156 64.8479 156.249 67.668L162.434 63.7636C166.663 61.1585 171.658 58.771 177.405 56.6008C183.156 54.4317 187.553 53.8343 190.593 54.812C195.474 67.0734 195.909 78.1401 191.892 88.0124C200.463 97.236 204.752 108.413 204.752 121.542C204.752 130.764 203.636 138.927 201.415 146.035C199.192 153.144 196.318 158.837 192.793 163.125C189.264 167.412 184.869 171.02 179.607 173.948C174.344 176.878 169.242 178.993 164.307 180.296C159.369 181.6 153.809 182.579 147.625 183.23C153.265 188.111 156.086 195.815 156.086 206.34V240.678C156.086 242.629 156.764 244.258 158.122 245.559C159.478 246.859 161.62 247.241 164.55 246.697C189.726 238.344 210.26 223.289 226.155 201.533C242.049 179.779 249.998 155.286 249.998 128.048C249.993 105.376 244.401 84.4649 233.23 65.3136Z" fill="white"/>
</svg>
