<svg width="250" height="250" viewBox="0 0 250 250" fill="none" xmlns="http://www.w3.org/2000/svg">
<path d="M197.917 0H52.0833C23.3229 0 0 23.3229 0 52.0833V197.917C0 226.677 23.3229 250 52.0833 250H197.917C226.688 250 250 226.677 250 197.917V52.0833C250 23.3229 226.688 0 197.917 0ZM83.3333 197.917H52.0833V83.3333H83.3333V197.917ZM67.7083 70.125C57.6458 70.125 49.4792 61.8958 49.4792 51.75C49.4792 41.6042 57.6458 33.375 67.7083 33.375C77.7708 33.375 85.9375 41.6042 85.9375 51.75C85.9375 61.8958 77.7812 70.125 67.7083 70.125ZM208.333 197.917H177.083V139.542C177.083 104.458 135.417 107.115 135.417 139.542V197.917H104.167V83.3333H135.417V101.719C149.958 74.7813 208.333 72.7917 208.333 127.51V197.917Z" fill="#2867B2"/>
</svg>
