<svg xmlns="http://www.w3.org/2000/svg" data-name="Layer 1" width="855.157" height="581.907"><path d="M519.741 326.238a5.5 5.5 0 0 1 5.5 5.5v53.206h105.5a5.5 5.5 0 0 1 0 11h-105.5v184h-11V331.738a5.5 5.5 0 0 1 5.5-5.5Z" fill="#e6e6e6"/><path d="m226.147 578.694-19.832.548a13.812 13.812 0 0 1-8.486-2.38c-2.154-1.601-3.142-3.767-2.708-5.942l3.902-19.613c.736-3.7 5.27-6.497 10.78-6.649l10.953-.302c5.51-.152 10.191 2.39 11.13 6.044l4.98 19.368c.552 2.147-.315 4.364-2.377 6.083a13.812 13.812 0 0 1-8.342 2.843ZM346.777 578.134l-19.832.547a13.812 13.812 0 0 1-8.485-2.379c-2.154-1.602-3.142-3.767-2.709-5.942l3.903-19.613c.735-3.7 5.27-6.497 10.78-6.65l10.952-.302c5.51-.152 10.192 2.39 11.13 6.044l4.98 19.368c.552 2.148-.315 4.365-2.377 6.083a13.812 13.812 0 0 1-8.342 2.844ZM157.282 411.63a4.331 4.331 0 0 1 1.595-8.308l225.468-6.226a4.33 4.33 0 0 1 4.448 4.208 4.336 4.336 0 0 1-4.209 4.449l-225.468 6.225a4.307 4.307 0 0 1-1.834-.349Z" fill="#3f3d56"/><path fill="#e6e6e6" d="m176.042 338.768 64.449-1.78 6.009 217.598-64.45 1.78z"/><path fill="#ccc" d="m242.126 333.079-12.389 33.749.011 153.759 15.096 4.329-2.718-191.837z"/><path d="M207.93 280.122c-12.057.342-21.256 21.209-21.035 29.352l.407 14.741 43.659-1.205-.407-14.742c-.229-8.142-10.566-28.47-22.624-28.146ZM176.878 428.88a8.51 8.51 0 0 1-8.731-8.261l-.663-23.991a8.5 8.5 0 1 1 16.994-.47l.662 23.991a8.51 8.51 0 0 1-8.262 8.732Z" fill="#3f3d56"/><path fill="#3f3d56" d="m193.233 339.284-.305-15.855 4.158-.103.305 15.804 3.769 230.346-4.159.115"/><path d="m247.881 376.36-74.738 2.065c-7.139-8.706-7.787-45.793 7.11-52.851l5.843-9.92 45.042-2.2 5.265 10.446c7.41 6.305 11.231 43.161 11.478 52.46Z" fill="#e6e6e6"/><path d="m219.75 358.573-18.9.522c-3.646.101-6.747-4.63-6.91-10.546s2.671-10.811 6.318-10.912l18.9-.522c3.648-.1 6.748 4.631 6.912 10.547s-2.672 10.81-6.32 10.911Z" fill="#f0e6f3"/><path fill="#e6e6e6" d="m183.151 465.568-38.959 27.52-6.806 62.05 45.448-15.185.317-74.385zM300.453 336.103l64.449-1.78 6.009 217.598-64.45 1.78z"/><path fill="#ccc" d="m301.996 333.806 13.261 33.416 3.979 153.708-14.979 4.719-2.261-191.843z"/><ellipse cx="397.132" cy="262.584" rx="8.447" ry="11.327" fill="#e6e6e6"/><path d="M331.083 277.492c-12.057.342-21.257 21.209-21.036 29.352l.407 14.741 43.66-1.205-.407-14.742c-.23-8.143-10.566-28.47-22.624-28.146ZM343.567 344.247l-.305-15.855 4.158-.104.305 15.805 3.769 230.346-4.159.115" fill="#3f3d56"/><path d="m371.034 373.73-74.739 2.064c-1.303-7.876.383-44.632 7.111-52.85l5.843-9.92 45.042-2.2 5.264 10.445c13.299 1.084 17.95 37.204 11.479 52.462Z" fill="#e6e6e6"/><path d="m342.995 359.254-18.9.522c-3.647.1-6.769-5.374-6.957-12.202s2.626-12.466 6.273-12.567l18.9-.522c3.647-.1 6.768 5.374 6.957 12.202s-2.626 12.466-6.273 12.567Z" fill="#f0e6f3"/><path fill="#e6e6e6" d="m368.086 449.662 37.663 29.268 3.966 62.297-44.706-17.244 3.077-74.321z"/><path d="M357.568 161.12c-40.413 0-86.857-44.845-127.949-23.538-124.415 64.514-107.288-43.44-143.032-83.589l1.174-2.353c27.06 103.218 51.543 267.692 142.398 83.204 22.76-46.214 97.456 25.22 141.424 23.113l.076 2.83q-6.965.335-14.09.334ZM454.565 167.467c-32.215 24.4-96.316 16.691-116.208 58.487-60.228 126.545-111.754 30.148-164.488 19.723l-.485-2.584c52.79 4.378 109.414-2.416 163.751-19.648 49.104-15.571 92.914-38.735 126.692-66.962l1.769 2.21q-5.35 4.473-11.03 8.774Z" fill="#f2f2f2"/><ellipse cx="104.132" cy="150.584" rx="8.447" ry="11.327" fill="#e6e6e6"/><ellipse cx="366.132" cy="58.584" rx="8.447" ry="11.327" fill="#e6e6e6"/><path d="M181.47 207.63c-3.861 2.572-7.814-3.552-3.878-6.011 3.862-2.573 7.815 3.551 3.879 6.01ZM324.47 6.63c-3.861 2.572-7.814-3.552-3.878-6.011 3.862-2.573 7.815 3.551 3.879 6.01ZM408.749 125.801l-2.457-.539.538-2.458-1.638-.359-.539 2.458-2.457-.538-.359 1.638 2.457.539-.538 2.457 1.638.359.539-2.458 2.457.539.359-1.638z" fill="#e6e6e6"/><circle cx="183.535" cy="32.737" r="10.702" fill="#ff6584"/><path d="M261.816 19.19c-12.058.343-21.257 21.21-21.036 29.352l.407 14.742 43.66-1.206-.408-14.741c-.228-8.143-10.565-28.47-22.623-28.147ZM287.813 577.41l-19.833.547a13.812 13.812 0 0 1-8.485-2.38c-2.154-1.601-3.142-3.767-2.709-5.942l3.903-19.612c.735-3.7 5.27-6.498 10.78-6.65l10.952-.302c5.51-.152 10.192 2.39 11.13 6.044l4.98 19.368c.552 2.147-.315 4.364-2.377 6.083a13.812 13.812 0 0 1-8.341 2.843Z" fill="#3f3d56"/><path fill="#e6e6e6" d="m232.207 114.816 64.45-1.78 12.145 439.848-64.45 1.78z"/><path fill="#3f3d56" d="m270.868 325.949-.305-15.855 4.158-.103.305 15.804 3.769 230.346-4.159.115"/><path d="m309.345 153.292-87.326 2.41c-1.522-9.202.447-52.15 8.309-61.751l2.154-11.462 60.297-1.665 3.154 11.17c8.66 7.369 13.124 50.432 13.412 61.298Z" fill="#e6e6e6"/><path d="m294.685 82.176-62.223 1.718c-2.297.064-4.193-1.142-4.236-2.693a1.952 1.952 0 0 1 .097-.658l9.665-29.776c.414-1.275 2.061-2.211 3.984-2.264l41.265-1.14c1.922-.053 3.619.791 4.103 2.042L298.633 78.6c.578 1.493-.756 3.047-2.98 3.47a6.08 6.08 0 0 1-.968.105Z" fill="#e6e6e6"/><path d="M238.6 323.926a7.626 7.626 0 0 1-1.58-.915 5.604 5.604 0 0 1-2.38-4.321l-2.26-81.878c-.094-3.389 3.225-6.24 7.397-6.356l55.703-1.538c4.173-.116 7.643 2.549 7.737 5.938l2.261 81.878a5.603 5.603 0 0 1-2.137 4.446 8.506 8.506 0 0 1-5.261 1.91l-55.703 1.538a8.92 8.92 0 0 1-3.777-.702Z" fill="#3f3d56"/><path d="m274.253 76.907-18.9.522c-3.648.1-6.732-4.02-6.874-9.184s2.71-9.45 6.356-9.55l18.9-.522c3.647-.1 6.731 4.02 6.874 9.184s-2.71 9.45-6.356 9.55Z" fill="#f0e6f3"/><path d="M721.009 562.528h-22V402.651c18.402-1.32 32.232-6.955 32.232-13.707 0-7.732-18.132-14-40.5-14s-40.5 6.268-40.5 14c0 6.817 14.1 12.494 32.768 13.742v159.842h-22a8 8 0 0 0 0 16h60a8 8 0 0 0 0-16Z" fill="#e6e6e6"/><path fill="#a0616a" d="m676.847 481.363-7.227 7.875-33.814-24.126 10.665-11.623 30.376 27.874z"/><path d="M658.368 502.148a13.322 13.322 0 0 0 4.336 9.308l.318.296 9.478-10.329 13.82-15.064-10.202-9.366-1.843 2.012-.192.207-9.182 4.343-1.945.925-.333.155-.733 7.865v.008a13.283 13.283 0 0 0-3.522 9.64Z" fill="#2f2e41"/><path fill="#a0616a" d="m714.287 559.924-10.227 3.107-16.85-37.968 15.094-4.585 11.983 39.446z"/><path d="m686.801 578.643.126.421 32.976-10.017-4.025-13.251-2.604.791-.274.082-12.26-1.125-.362-.03-4.64 6.4a13.413 13.413 0 0 0-8.937 16.729Z" fill="#2f2e41"/><path data-name="Path 17" d="M629.957 361.128s-65.294 63.042-24.016 82.556h12.758a84.503 84.503 0 0 1 12.611-25.108c1.206-1.577 5.721-1.257 6.975-2.794 7.657-9.387 15.959-17.448 21.692-17.128l-1.372 43.558-2.22 15.537c-1.165 8.032 31.728 78.161 31.728 78.161l20.674-8.125s-21.54-57.762-21.792-66.09l17.261-91.561Z" fill="#2f2e41"/><path d="M624.512 364.237a3.89 3.89 0 0 0 1.273 1.154 8.99 8.99 0 0 0 2.67.992c14.702 3.337 62.726 10.254 75.193 6.955 1.532-.4 2.53-.962 2.856-1.702 1.043-2.338.91-12.215.296-24.142-.111-2.234-2.575-4.654-2.723-6.992-.103-1.753 2.109-3.403 1.99-5.186-.813-12.06-1.864-24.349-2.567-32.118-.444-4.994-.747-8.116-.747-8.116l7.583-47.817-.355-.585-.4-.2-24.452-12.104-1.331-3.403a5.267 5.267 0 0 0-4.876-3.337l-16.107-.066a5.249 5.249 0 0 0-4.284 2.175l-4.365 6.044-28.855 18.497.111.34 13.54 41.203.066 3.211v.008l.503 25.821-1.398 3.5 1.576 5.741s-.725 6.71-4.61 11.697c-3.521 4.528-8.005 9.249-10.032 13.081v.007c-1.125 2.117-1.502 3.951-.555 5.342Z" fill="#f0e6f3"/><path data-name="Path 18" d="m602.806 439.939 3.49 4.41s32.097 22.456 33.2 24.554l5.072 4.8 12.274-13.12-6.383-8a50.107 50.107 0 0 0-19.22-14.716l-9.783-8.679Z" fill="#2f2e41"/><path d="m718.425 379.131-5.845-56.577-1.543-23.286 16.36-2.958s-.648 16.65 1.495 26.044c2.115 9.27.28 55.535.15 56.772a7.96 7.96 0 1 1-10.617.005Z" fill="#a0616a"/><path d="m698.943 293.447 4.557 9.751 1.59 3.396 4.285 22.433 2.138 2.272 1.842 7.332.866-.178 15.61-3.233 4.551-.94a8.65 8.65 0 0 0-1.568-10.824c-.311-.281-.57-.555-.563-.814.26-15.604-.695-44.096-9.315-55.823-2.737-3.721-4.38-7.428-6.77-10.017-.007-.008-.007-.015-.014-.015l-5.816-9.522-.355-.585-.4-.2Z" fill="#f0e6f3"/><circle data-name="Ellipse 5" cx="672.128" cy="202.131" r="21.431" fill="#a0616a"/><path d="M697.575 197.52c.628-3.602 1.117-8.27-.68-12.42-1.52-3.493-5.321-6.768-9.546-6.326a4.399 4.399 0 0 0-1.372-4.4 11.555 11.555 0 0 0-4.689-2.204c-3.97-1.167-8.084-2.377-12.331-2.4-4.767-.025-8.99 1.608-11.58 4.487l-.064.093-.776 1.854a1.868 1.868 0 0 1-1.149 1.057 1.836 1.836 0 0 1-1.553-.19 1.695 1.695 0 0 0-2.581 1.366l-.042.79-1.112-.443a1.69 1.69 0 0 0-2.298 1.85l.148.942a1.811 1.811 0 0 0-1.38.31 1.655 1.655 0 0 0-.59 1.86 15.398 15.398 0 0 0 4.285 6.4 12.802 12.802 0 0 0 2.908 1.978q.33.166.685.314a76.252 76.252 0 0 0 26.963 6.108 15.654 15.654 0 0 0-1.674 5.372 5.875 5.875 0 0 0 2.514 5.542 7.4 7.4 0 0 0 1.204.551 7.941 7.941 0 0 1 1.154.535 3.598 3.598 0 0 1-.148 6.243s1.595 1.947 1.85 1.914a4.982 4.982 0 0 0 2.625-1.553c4.641-4.507 7.746-11.107 9.23-19.63Z" fill="#2f2e41"/><path d="m791.398 528.793.931-20.943a67.64 67.64 0 0 1 31.55-7.987c-15.153 12.389-13.26 36.27-23.532 52.929a40.686 40.686 0 0 1-29.836 18.801l-12.68 7.764a68.176 68.176 0 0 1 14.37-55.246 65.854 65.854 0 0 1 12.103-11.245c3.037 8.008 7.094 15.927 7.094 15.927Z" fill="#f2f2f2"/><path d="M855.157 580.354a1.549 1.549 0 0 1-1.554 1.553H1.553a1.553 1.553 0 0 1 0-3.107h852.05a1.549 1.549 0 0 1 1.554 1.554Z" fill="#ccc"/><path d="M366.498 423.566a8.51 8.51 0 0 1-8.731-8.262l-.663-23.991a8.5 8.5 0 0 1 16.994-.47l.662 23.992a8.51 8.51 0 0 1-8.262 8.731Z" fill="#3f3d56"/><path d="M741.354 511.248q-19.368 0-42.456-1.464c-79.614-5.056-182.738-22.633-290.376-49.492-107.638-26.86-206.93-59.794-279.585-92.734C93.544 351.51 66.38 336.32 48.2 322.41c-19.247-14.727-27.666-27.564-25.024-38.153 5.148-20.629 50.731-25.142 88.064-25.295l.013 3c-51.268.21-81.514 8.387-85.166 23.022-4.651 18.64 33.287 47.74 104.087 79.841 72.496 32.868 171.606 65.74 279.074 92.557 107.467 26.816 210.4 44.363 289.84 49.408 77.578 4.928 124.743-2.938 129.394-21.578 3.862-15.477-21.598-38.276-71.69-64.198l1.38-2.664c36.396 18.835 78.645 45.851 73.221 67.588-2.642 10.59-16.105 17.965-40.015 21.923-13.63 2.256-30.37 3.387-50.025 3.387Z" fill="#ccc"/><path d="M56.059 491.595c-10.247 0-16.908-2.546-19.856-7.607-5.814-9.98 3.923-27.494 28.941-52.051l2.102 2.14c-23.24 22.813-33.343 40.001-28.451 48.4 3.096 5.313 12.308 7.218 26.648 5.505 14.236-1.7 33.1-6.765 56.072-15.055 47.291-17.067 106.623-45.856 167.065-81.064 60.44-35.207 114.75-72.617 152.927-105.335 7.332-6.286 13.987-12.333 19.78-17.972a196.96 196.96 0 0 0 20.975-23.377c8.563-11.627 11.453-20.581 8.358-25.895-5.17-8.874-26.888-8.04-61.157 2.353l-.87-2.87c36.766-11.15 58.508-11.484 64.619-.992 3.797 6.518.926 16.337-8.534 29.183a199.923 199.923 0 0 1-21.3 23.748c-5.836 5.683-12.538 11.772-19.919 18.1-38.31 32.833-92.777 70.353-153.37 105.648-60.593 35.297-120.1 64.168-167.555 81.295-23.185 8.367-42.274 13.486-56.735 15.211a82.698 82.698 0 0 1-9.74.635Z" fill="#ccc"/><path d="M603.602 368.423c-7.415-.148-47.24-1.291-53.77-1.01-.37-1.293-12.75 14.573-13.052 14.67a1.808 1.808 0 0 0 .605 2.908c.728.443 64.932-.745 65.71-.59a1.786 1.786 0 0 0 1.593-1.038l.43-.962c.044-1.644.582-10.048.1-11.484a1.778 1.778 0 0 0-1.616-2.494Z" fill="#e6e6e6"/><path d="M782.303 559.959c-.377.905-.859 2.043-2.023 2.001l-65.032.73a1.794 1.794 0 0 1-1.565-2.633Z" transform="translate(-177.185 -177.56)" opacity=".17" style="isolation:isolate"/><path d="M550.135 367.218c-.7-1.21-18.086-87.238-19.537-87.957l-11.87-14.521-1.062-.798c-1.475-.81-5.014-.263-4.695 1.99 2.789 13.37 20.725 89.52 21.118 101.391l2.16 15.124a1.863 1.863 0 0 0 2.3 1.53 3.583 3.583 0 0 0 2.877-2.079c.162-.534 9.522-14.37 8.709-14.68Z" fill="#e6e6e6"/><path d="m695.91 442.3 22.703 117.16c-.759 1.922-4.312 3.268-5.14.747-.014-.003-23.29-116.643-23.314-116.713-.248-2.807 4.39-2.896 5.751-1.195Z" transform="translate(-177.185 -177.56)" opacity=".17" style="isolation:isolate"/><path fill="#f0e6f3" d="m519.409 269.531 11.53 16.072 12.942 61.465-6.016 5.248-18.456-82.785z"/><path d="m596.159 376.71 3.19.13a12.539 12.539 0 0 1 .46-2.76c.48-2.28.91-4.99-1.08-4.98-1.35-.13-1.81 1.58-2.05 3.44a26.318 26.318 0 0 1-.52 4.17ZM577.859 372.42l2.15.08 1.04.04c-.02-1.14.51-3.49-.78-4.07a1.6 1.6 0 0 0-.65-.13c-1.21-.07-1.57.85-1.68 1.91-.07.64-.04 1.32-.06 1.85 0 .11-.01.22-.02.32ZM571.489 372.16l2.16.09 1.03.04c-.02-1.31.67-4.17-1.43-4.21-1.94-.11-1.69 2.36-1.74 3.76 0 .11-.01.22-.02.32ZM565.119 371.91l2.15.08 1.04.04c-.02-1.3.67-4.16-1.43-4.2-1.94-.12-1.69 2.35-1.74 3.76 0 .11-.01.22-.02.32ZM558.749 371.65l2.16.09 1.03.04c-.02-1.31.67-4.16-1.43-4.21-1.94-.11-1.69 2.36-1.74 3.76 0 .11-.01.22-.02.32ZM552.379 371.4l2.15.08 1.04.04c-.02-1.2.56-3.71-.98-4.14h-.01a1.464 1.464 0 0 0-.44-.06 1.506 1.506 0 0 0-.54.05h-.01c-1.34.35-1.15 2.45-1.19 3.71 0 .11-.01.22-.02.32ZM589.729 370.72l3.19.13c0-.12 0-.25.01-.4a13.33 13.33 0 0 0 .04-2.29c-.11-.84-.47-1.5-1.48-1.52-1.03-.06-1.44.6-1.6 1.45a3.116 3.116 0 0 0-.08.44v.01c-.08.78-.03 1.62-.08 2.18ZM583.359 370.46l3.19.13a23.28 23.28 0 0 0 .06-2.58c-.09-.88-.44-1.6-1.49-1.62-1.06-.07-1.47.65-1.63 1.54-.15.86-.07 1.89-.13 2.53Z" fill="#2f2e41"/><path d="m576.989 370.21.95.04 2.24.09c-.01-.48.08-1.18.09-1.87a4.233 4.233 0 0 0-.02-.62c-.08-.93-.41-1.7-1.5-1.72-1.11-.06-1.5.71-1.64 1.65-.14.84-.06 1.81-.12 2.43ZM589.789 376.46l3.19.12c-.01-1.3.67-4.16-1.43-4.2-2.1-.13-1.64 2.77-1.76 4.08ZM583.419 376.2l3.19.13c-.01-1.31.67-4.17-1.43-4.21-2.1-.12-1.64 2.78-1.76 4.08ZM577.049 375.95l3.19.12c-.01-.93.34-2.65-.23-3.57a1.32 1.32 0 0 0-1.2-.63 1.406 1.406 0 0 0-.93.23c-1.02.67-.73 2.79-.83 3.85ZM570.679 375.69l3.19.13c-.01-.93.33-2.64-.22-3.57a1.323 1.323 0 0 0-1.21-.64 1.39 1.39 0 0 0-.93.23c-1.02.69-.73 2.8-.83 3.85ZM564.309 375.44l3.19.12c-.01-.93.34-2.65-.23-3.57a1.32 1.32 0 0 0-1.2-.63 1.405 1.405 0 0 0-.93.23c-1.02.67-.73 2.79-.83 3.85ZM557.939 375.18l3.19.13c-.01-.93.33-2.64-.22-3.57a1.312 1.312 0 0 0-1.21-.64 1.39 1.39 0 0 0-.93.23c-1.02.69-.73 2.8-.83 3.85ZM551.569 374.93l3.19.12c-.01-.93.33-2.64-.23-3.57a1.308 1.308 0 0 0-1.2-.63 1.405 1.405 0 0 0-.93.23c-1.02.68-.73 2.79-.83 3.85Z" fill="#2f2e41"/><path d="m587.595 365.686 24.313-51.42 9.193-21.45-14.448-8.227s-4.921 15.92-10.064 24.068c-5.075 8.04-18.719 52.286-19.006 53.496a7.96 7.96 0 1 0 10.012 3.533Z" fill="#a0616a"/><path d="m587.447 318.079 18.387 11.093 4.17-6.303 2.778-1.433 11.494-19.737 10.163-10.354 13.427-42.919-17.47 2.621-.023.008c-3.112 1.65-5.896 4.601-9.713 7.202-12.026 8.196-22.395 34.752-27.335 49.559-.081.243-.414.412-.8.578a8.653 8.653 0 0 0-5.078 9.685Z" fill="#f0e6f3"/></svg>
